<?xml version="1.0" encoding="UTF-8" standalone="no"?>
<svg xmlns="http://www.w3.org/2000/svg" viewBox="0 0 100 100">
  <g transform="matrix(.84138 0 0 .86313 49.9 51)" fill="none">
    <ellipse ry="55.6" rx="57" cy="-1.1" cx=".2" fill="gray"></ellipse>
    <path d="M-47.7-15.6c3.9-11.6 22.6-45.2 64.2-32.9A54.1 54.1 0 0 1 50.8 1.7l-2.3.5c-.4 4-.4 8.3-1.9 11.5.3 2-.8 3.1-1.7 4.4l-2 6.2c-1.5 2.2-3 3.7-4.4 4.6-2-2-2.4-4.4-2.7-6.8.4-1.3-6.6-2.8-6.2-5.8-1.6-.8-2.3.5-3.7.2.3-1-.6-1.8-2.6-2.4-2 .4.3-3-6.3-2.3-.9 0-2.2-6.5-7.5-2.4-11.4-7.8-4.6 8.2-2.4 14.9.4.8-2.1 2-.8 3.4.4.7-5 1.7-5.8 1-1.1-1.1-1.4-4-3-3.5-2.2-1.3-3-.2-3.3 1.8 0 1.7-1 2.8-1.6 4 1.3.7 3.9-.3 5.5.8.6-.7 2.1-1.4 6-1.8 3.8.1 3.2-2 4-3.6.2-2.4 3.8-3.2 4.8-6.3.3.4.5-1.2 1 3 1.3-.2.5-2.9 2-2 1.5 1.7-3.9-3.6 4.3 13.7.8 1 1 0 1.3-.2-3.6-6.3-1.9-6-2.7-8.8-1.4-1.6-.5-1.9.1-2.4 1.9.3 1.6 1.4 2 2.3.2-1.8 1.4-1 2.3-1-1 .5-1.8 1.1-1.2 2.4 1.7.1 2 1 2.8 1.6l.1 1.6c1.2.2.8-.7 1-1.1.7 1.3 2.1 0 3.4-.2 1.6.4 3 1 5.7.3 4.6.3 1.2 2.2 1.4 3.3-1.5 1.3-3 2.8-4.6 2.8-1.2-.1-3.2.8-3.5-1-.3-2.7-1.2-2.2-2.3.3-1 1.6-.8 3-1 4.4-2 2-3.4 3.2-2.8.6 0-1 1.7-2.7-1.8-2-2.2 1.1-4.4 1.6-6.5 2.2-1.2-.3-3-1.6-3.1-.3-2-1.4-3.8 1.3-5.7 2.3-4.2 1.3-9-2.9-9.5.5 0 1.2-.4 2.3 3.3 2.8 2 1.2 3 2.6 3.5 4.2-8.5.3-16.3-2.2-17.7-3.8-7.5-5.2-2.3-5.7-6.7-6.6-2.9-.8 1.7-1-4.4-2.7-2.7-.7-3.5-3.6-4.5-5.5-3.4-.2-2.3-1.8-7.1-2.3-.8-.3-3.8-3-3.5-5-.3-1.6 0-3.4-2.2-4-1.6-1 1.3-4-.5-4.4-.2 1-.3 2.5-2 1-.4-2.5.8-1.5 1.7-1.2.6-.5 0-1.1-.3-1.8-1.2-1-2.3-2-2.3-2.7A47 47 0 0 1-44-3.2c1.3-.3 1.9-.2 3.7-1.3 1.2 0 1.3.5 3.3-.9 2.5.8 5.1 1.6 8.4.4 2-1.6 2.8-5.3 6.7-3 3 1.6 3.3-1 5.2.6 1.6.4 5.3-2.9 5 1.4 1 1.3 2 1.9 2.4 4 1.7.2.3 2.4 4 6a4 4 0 0 0 2 2C-2.2.8-6.8-3.7-8.6-8.5c-2-4.5 1.8-2 3.3-2.1a7 7 0 0 1 5.8.1c1.8.2 3.9 0 3.3 3C3.4-4.7 4-2 2.4.3c-.8 1 0 1.8 1.2 2.5 1.9-.4 3.3 1.2 4.8 3 .6-.2 1-1 1.4-1.8-.3-2-1.4-2.1-2.3-2.8C6.3.5 6.4-.1 6.8-1.3 7.8-5 5-9.3 6-13c0-.7-4.4-7.6-5.6-7.6-4.9-2.6-7-2-9-1-2 .4-4.2 1.2-6-.1-3.6-.3-7-.4-10.5.7-3.9 1-8.3.6-11.5 3.4l-5.5 2c-2 .6-3.9.8-5.6.1z" fill="#e6e6e6" stroke="none"></path>
    <path d="M-43-37.4A54.6 54.6 0 0 0-57-1.1 56.3 56.3 0 0 0 0 54.5c20.3 0 38-10.3 48.1-25.8C-5.4 42.8-41 19.7-43-37.4z" opacity=".2" fill="#000" stroke="none"></path>
  </g>
</svg>